<?xml version="1.0" standalone="no"?>
<!DOCTYPE svg PUBLIC "-//W3C//DTD SVG 20010904//EN"
 "http://www.w3.org/TR/2001/REC-SVG-20010904/DTD/svg10.dtd">
<svg version="1.0" xmlns="http://www.w3.org/2000/svg"
 width="500.000000pt" height="500.000000pt" viewBox="0 0 500.000000 500.000000"
 preserveAspectRatio="xMidYMid meet">

<g transform="translate(0.000000,500.000000) scale(0.100000,-0.100000)"
fill="#000000" stroke="none">
<path d="M1622 4851 c-30 -10 -66 -27 -80 -38 -21 -15 -50 -21 -125 -26 -120
-7 -167 -26 -184 -77 -7 -21 -12 -101 -12 -206 -1 -94 -4 -225 -8 -292 l-6
-121 -56 -45 c-433 -339 -717 -828 -795 -1367 -20 -137 -21 -403 -1 -554 51
-385 209 -751 461 -1060 168 -208 472 -467 700 -598 597 -344 1334 -369 1950
-66 556 272 977 788 1123 1374 86 347 87 699 1 1030 -73 280 -214 562 -391
785 -148 187 -453 457 -659 584 -111 69 -268 148 -283 143 -7 -2 40 -30 103
-62 596 -298 1004 -839 1124 -1489 117 -629 -69 -1291 -496 -1762 -332 -366
-735 -585 -1233 -670 -127 -22 -468 -25 -605 -5 -808 114 -1491 709 -1711
1490 -95 340 -104 729 -24 1058 105 432 347 823 684 1104 52 43 95 78 97 77 1
-2 -2 -138 -8 -303 -5 -165 -8 -365 -6 -445 3 -131 6 -150 30 -202 16 -34 34
-59 47 -63 12 -3 21 -11 21 -16 0 -5 12 -28 26 -50 25 -40 27 -41 66 -35 22 4
58 16 81 28 37 18 52 20 142 14 56 -3 128 -1 164 4 91 15 206 62 281 115 35
25 72 45 81 45 18 0 70 46 95 85 8 13 28 25 44 28 26 6 31 13 49 74 73 257 74
266 35 417 -49 193 -105 343 -134 361 -6 4 -33 36 -60 72 -62 82 -99 109 -166
123 -30 6 -54 13 -54 14 0 2 6 22 14 44 8 22 18 72 22 111 6 68 5 74 -37 173
-52 120 -98 174 -174 201 -61 21 -67 21 -133 -2z m137 -70 c50 -26 55 -33 101
-147 37 -89 40 -104 34 -155 -6 -50 -9 -58 -31 -64 -14 -3 -27 -4 -29 -2 -2 2
3 36 11 75 14 68 14 75 -5 131 -20 61 -57 131 -68 131 -10 1 -68 50 -59 50 4
0 25 -9 46 -19z m-214 -416 c-3 -143 -2 -273 3 -289 l8 -30 90 83 c94 87 98
93 139 183 25 56 47 78 80 78 14 0 13 -7 -10 -46 -18 -31 -25 -53 -21 -70 6
-21 12 -24 54 -24 27 0 71 -7 99 -15 45 -13 57 -24 109 -91 102 -132 108 -146
178 -404 31 -113 32 -148 7 -231 -10 -35 -22 -81 -25 -101 -5 -24 -16 -44 -34
-57 -15 -10 -45 -44 -67 -75 -22 -31 -48 -56 -57 -56 -9 0 -47 -21 -85 -47
-105 -72 -204 -111 -288 -113 -22 -1 -88 -1 -146 0 -90 1 -113 -2 -147 -19
-56 -29 -67 -27 -87 15 -9 19 -27 39 -40 44 -23 9 -38 42 -50 110 -3 19 -1
229 4 465 l10 430 38 32 c40 34 41 55 0 28 l-25 -16 5 268 c4 202 8 271 18
282 9 9 49 16 122 20 l108 6 8 -50 c4 -27 5 -167 2 -310z m170 338 c37 -37 67
-109 66 -158 0 -22 -8 -67 -18 -100 -15 -50 -24 -63 -50 -75 -37 -17 -45 -41
-12 -33 12 4 20 2 17 -3 -2 -5 -11 -25 -20 -45 -10 -20 -32 -47 -50 -61 l-34
-26 3 251 c3 249 3 251 25 264 33 18 42 16 73 -14z"/>
<path d="M1618 4065 c-26 -14 -50 -34 -54 -47 -3 -12 -8 -134 -9 -272 -3 -255
-14 -355 -61 -558 -26 -110 6 -133 113 -84 74 35 236 190 300 288 64 98 77
150 71 283 -5 92 -10 111 -47 196 -50 112 -79 152 -139 190 -57 36 -109 37
-174 4z m132 -60 c39 -20 71 -64 115 -157 32 -68 37 -89 42 -175 7 -121 -3
-159 -66 -254 -61 -93 -248 -265 -268 -246 -3 3 7 77 22 164 25 138 28 189 31
403 l4 245 27 17 c34 22 55 22 93 3z"/>
<path d="M2796 4785 c-20 -19 -40 -35 -45 -35 -19 0 -33 -44 -47 -144 -7 -56
-14 -105 -14 -111 0 -6 -83 -10 -227 -10 -216 0 -390 -15 -424 -36 -26 -16 -2
-16 81 -1 91 16 541 24 556 9 4 -4 -5 -112 -20 -240 -92 -774 -128 -1155 -118
-1262 2 -18 16 -43 37 -64 28 -29 42 -35 88 -39 30 -2 71 1 90 7 37 13 97 71
97 95 0 8 11 36 25 63 35 67 69 215 110 473 19 121 35 222 35 225 0 2 36 5 80
7 l80 3 41 -115 c89 -244 227 -509 286 -547 27 -18 65 -11 93 17 15 15 20 34
20 69 0 49 -23 117 -126 363 -24 59 -44 114 -44 122 0 8 -23 72 -51 143 -53
133 -127 358 -205 623 -73 248 -118 337 -183 364 -23 9 -48 16 -57 16 -8 0
-32 9 -54 20 -53 27 -64 26 -104 -15z m104 -55 c22 -11 51 -20 65 -20 49 0 78
-56 145 -280 90 -304 158 -510 211 -645 33 -82 59 -156 59 -163 0 -8 14 -48
31 -90 149 -365 176 -472 93 -359 -61 81 -181 344 -235 515 -34 105 -44 114
-132 108 l-72 -5 50 15 c73 23 88 40 81 89 -6 44 -93 314 -123 384 l-19 44
-22 -79 c-12 -43 -32 -155 -44 -247 -18 -138 -19 -173 -9 -189 10 -17 10 -22
-4 -32 -13 -9 -28 -77 -60 -272 -51 -303 -68 -377 -107 -460 -15 -34 -28 -66
-28 -72 0 -23 -53 -52 -94 -52 -81 0 -80 -2 -67 236 6 115 22 308 36 429 13
121 34 303 45 405 11 102 28 246 38 320 l18 135 32 -3 c40 -4 42 14 2 23 -34
8 -34 6 -19 129 11 86 13 93 48 123 20 18 37 32 39 33 1 0 20 -9 42 -20z m227
-846 c-1 -1 -20 -5 -42 -8 l-40 -7 8 83 c5 46 11 90 14 98 2 8 17 -25 33 -75
16 -49 28 -90 27 -91z"/>
<path d="M1937 2453 c-5 -8 -12 -236 -9 -289 1 -18 9 -34 17 -38 13 -5 15 18
15 164 0 151 -6 192 -23 163z"/>
<path d="M2026 2373 c-8 -49 -8 -207 0 -227 3 -9 12 -16 20 -16 11 0 14 19 14
84 0 81 1 85 28 104 44 32 131 57 145 43 7 -7 13 -56 15 -126 3 -95 6 -115 19
-115 23 0 14 216 -10 254 -25 37 -69 34 -140 -8 l-57 -35 0 40 c0 52 -25 53
-34 2z"/>
<path d="M2658 2351 c-85 -54 -127 -169 -76 -205 42 -30 125 -11 176 40 19 19
36 34 38 34 2 0 4 -13 4 -29 0 -37 9 -61 22 -61 13 0 1 193 -15 227 -16 35
-88 32 -149 -6z m116 -7 c26 -10 20 -66 -14 -112 -45 -62 -112 -92 -149 -65
-73 51 75 211 163 177z"/>
<path d="M2496 1734 c-4 -9 -9 -63 -13 -119 l-6 -102 -43 5 c-34 3 -56 -2 -98
-22 -63 -31 -96 -75 -96 -129 0 -78 102 -102 189 -44 l40 26 6 -29 c6 -27 21
-47 30 -38 7 7 12 468 5 468 -4 0 -11 -7 -14 -16z m-28 -301 l3 -52 -50 -25
c-27 -14 -67 -28 -89 -32 -34 -5 -42 -3 -52 15 -34 64 54 154 145 148 l40 -2
3 -52z"/>
<path d="M1538 1673 c-26 -4 -40 -23 -17 -23 7 0 8 -16 3 -45 -3 -25 -3 -106
1 -180 l7 -134 37 -7 c113 -22 331 73 331 143 0 31 -60 59 -150 70 l-65 8 58
29 c92 45 99 90 18 123 -34 15 -175 25 -223 16z m225 -52 c17 -17 18 -22 7
-36 -26 -31 -143 -75 -200 -75 -15 0 -12 127 3 134 6 3 47 4 91 2 62 -3 83 -9
99 -25z m61 -165 c37 -24 34 -59 -7 -85 -43 -26 -139 -51 -198 -51 l-46 0 -6
68 c-3 37 -3 69 -1 71 24 24 221 22 258 -3z"/>
<path d="M3287 1674 c-4 -4 -7 -43 -7 -86 l0 -78 -46 0 c-38 0 -45 -3 -42 -17
2 -14 15 -19 50 -21 l47 -3 3 -92 c3 -78 6 -92 21 -95 15 -3 17 7 17 97 l0
101 40 0 c31 0 40 4 40 18 0 13 -9 17 -42 17 l-43 0 -5 79 c-5 73 -15 98 -33
80z"/>
<path d="M2980 1543 c-61 -23 -110 -95 -110 -160 1 -47 16 -68 65 -89 61 -25
174 2 214 50 17 21 6 20 -64 -4 -32 -11 -75 -20 -97 -20 -25 0 -45 7 -58 20
-26 26 -25 42 1 66 17 15 40 20 110 23 76 2 91 6 100 22 16 30 1 57 -41 79
-38 19 -89 25 -120 13z m119 -38 c24 -23 6 -42 -48 -49 -54 -7 -121 1 -121 14
0 23 92 62 130 54 14 -3 31 -11 39 -19z"/>
<path d="M2162 1463 c1 -57 -3 -87 -13 -99 -20 -25 -72 -44 -118 -44 -32 0
-44 5 -57 26 -15 22 -16 33 -5 87 18 89 18 91 -1 95 -30 6 -41 -37 -33 -123 9
-96 24 -115 93 -115 26 0 67 9 91 20 51 24 51 24 51 6 0 -7 7 -19 15 -26 13
-11 15 1 15 98 0 95 -3 113 -20 133 l-19 24 1 -82z"/>
<path d="M2692 1513 c-60 -29 -136 -141 -130 -191 3 -23 8 -27 42 -30 47 -4
85 10 149 55 l49 34 -4 -141 c-3 -135 -4 -143 -27 -161 -18 -15 -39 -19 -97
-19 -70 0 -94 -10 -58 -24 26 -10 144 -7 164 4 11 6 25 20 31 32 19 36 29 166
22 293 -6 106 -9 122 -29 142 -27 27 -66 29 -112 6z m86 -25 c24 -24 13 -60
-33 -104 -68 -66 -167 -86 -149 -32 29 93 141 177 182 136z"/>
<path d="M3445 1301 c-3 -5 -1 -12 5 -16 12 -7 30 2 30 16 0 12 -27 12 -35 0z"/>
</g>
</svg>
